<?xml version="1.0" standalone="no"?>
<!DOCTYPE svg PUBLIC "-//W3C//DTD SVG 1.1//EN" "http://www.w3.org/Graphics/SVG/1.1/DTD/svg11.dtd" >
<svg xmlns="http://www.w3.org/2000/svg" xmlns:xlink="http://www.w3.org/1999/xlink" version="1.1">
<metadata></metadata>
<defs>
<font id="iconsregular" horiz-adv-x="2048" >
<font-face units-per-em="2048" ascent="1636" descent="-412" />
<missing-glyph horiz-adv-x="552" />
<glyph unicode=" "  horiz-adv-x="552" />
<glyph unicode="&#x09;" horiz-adv-x="552" />
<glyph unicode="&#xa0;" horiz-adv-x="552" />
<glyph unicode="*" horiz-adv-x="2426" d="M0 -2q0 178 182 318q182 138 440 138h112q-86 82 -86 176q0 60 32 120q-20 -2 -60 -2q-212 0 -348 132q-134 134 -134 328q0 186 168 326t382 140h636q-48 -34 -142 -104h-202q98 -36 152 -138t54 -228q0 -190 -180 -332q-76 -58 -98 -94q-24 -34 -24 -86q0 -38 56 -98 t110 -100q126 -88 174 -180t48 -232q0 -184 -168 -320t-454 -136q-274 0 -462 102t-188 270zM230 66q0 -142 120 -242q118 -98 298 -98q242 0 352 90t110 240q0 38 -8 64q-6 24 -14 42q-8 20 -26 40q-16 20 -28 32q-12 14 -40 34t-42 32q-14 10 -50 34q-38 26 -54 36 q-80 26 -158 26h-6q-180 0 -316 -96q-138 -100 -138 -234zM360 1280q0 -34 4 -70q24 -162 124 -278q102 -116 224 -118q6 -2 10 -2q114 2 184 108q54 82 54 192v10q0 34 -4 70q-20 162 -122 274q-100 114 -224 118h-8q-118 0 -186 -106q-56 -84 -56 -198zM1502 1162v102h408 v410h104v-410h410v-102h-410v-412h-104v412h-408z" />
<glyph unicode="+" d="M0 1024q0 422 300 724q302 300 724 300t724 -300q300 -302 300 -724t-300 -724q-302 -300 -724 -300t-724 300q-300 302 -300 724zM512 878h366v-366h292v366h366v292h-366v366h-292v-366h-366v-74v-218z" />
<glyph unicode="1" horiz-adv-x="1586" d="M0 938q0 130 54 256t156 236q102 108 266 176q166 68 366 68q326 0 534 -202q210 -200 210 -472q0 -350 -178 -580q-178 -228 -458 -228q-92 0 -172 44q-82 42 -114 104q-28 -108 -82 -324q-10 -38 -26 -78q-18 -40 -36 -78q-20 -36 -40 -68q-20 -34 -38 -62 q-20 -30 -34 -48q-14 -20 -28 -34q-4 -6 -12 -16q-4 -8 -12 -8q-2 0 -4 2q-10 2 -12 12q0 2 -4 28q-2 26 -6 56q-2 30 -6 78q-2 46 -2 90q2 44 6 98q6 52 16 98q22 96 152 642q-16 32 -28 78q-10 46 -10 74q0 10 -2 32q0 130 68 218q66 86 160 86q76 0 118 -50t42 -126 q0 -46 -18 -116q-18 -68 -46 -158q-28 -88 -40 -144q-22 -92 36 -160q56 -66 150 -66q162 0 266 182q106 184 106 444q0 198 -128 324q-130 126 -362 126q-258 0 -418 -166t-160 -396q0 -138 78 -232q26 -30 16 -66q-4 -10 -12 -46q-8 -38 -12 -48q-6 -22 -22 -30 q-16 -6 -36 2q-122 48 -182 168t-60 280z" />
<glyph unicode="C" horiz-adv-x="1148" d="M-754 736v4q2 34 26 56q26 24 60 24t58 -26q32 -34 54 -58q24 -26 42 -44q70 -74 72 -76q2 0 44 -46l32 -24q30 -24 78 -24q38 2 78 24t80 68q92 110 160 192t118 144l70 84t52 62q68 84 86 106q16 20 62 74q12 14 26 32q16 18 34 42q22 26 56 30h10q28 0 52 -18 q26 -22 28 -56q2 -6 2 -10q0 -28 -20 -52q-92 -110 -160 -194q-68 -82 -118 -144l-70 -84t-52 -62q-70 -86 -88 -106q-16 -22 -62 -76q-12 -14 -28 -32q-14 -18 -34 -42q-66 -74 -136 -110q-72 -38 -146 -38h-2q-98 0 -158 46t-72 56q-32 34 -54 58q-24 26 -42 44 q-68 72 -70 74t-44 46q-24 24 -24 56z" />
<glyph unicode="O" horiz-adv-x="1148" d="M0 696q0 156 58 298q60 142 170 252t252 170q144 58 300 58t298 -58q142 -60 252 -170q12 -12 22 -24q12 -12 22 -24q-38 -46 -114 -140q-14 16 -26 32q-14 16 -30 30q-84 86 -194 132q-110 44 -230 44q-122 0 -232 -44q-108 -46 -194 -132q-86 -84 -130 -194 q-46 -110 -46 -230q0 -122 46 -230q44 -110 130 -196q86 -84 194 -130q110 -46 232 -46q120 0 230 46t194 130q82 82 126 180q46 96 48 210q34 38 34 40q2 2 56 64q12 16 32 36q18 22 42 52q16 -78 16 -156q0 -108 -32 -220q-52 -188 -196 -332q-110 -110 -252 -168 q-142 -60 -298 -60t-300 60q-142 58 -252 168t-170 254q-58 142 -58 298z" />
<glyph unicode="T" horiz-adv-x="2520" d="M0 -170q62 -6 122 -6q362 0 644 222q-168 2 -302 102q-132 100 -182 256q42 -8 96 -8q72 0 138 18q-180 34 -298 176q-118 144 -118 330v6q108 -62 236 -64q-106 70 -170 184q-62 114 -62 246q0 140 72 260q192 -240 470 -382t596 -158q-16 68 -16 118q0 214 152 366 q152 150 366 150q224 0 378 -164q178 38 328 128q-58 -186 -226 -286q150 18 296 80q-100 -152 -256 -268v-66q0 -208 -62 -416q-60 -208 -184 -396q-124 -190 -296 -338t-412 -234q-240 -88 -518 -88q-428 0 -792 232z" />
<glyph unicode="U" horiz-adv-x="1760" d="M-30 210q0 112 12 332q8 110 78 178t178 74q204 10 616 10t616 -10q110 -6 178 -74q70 -68 78 -178q10 -184 10 -332q0 -146 -10 -330q-8 -110 -78 -178q-68 -68 -178 -74q-204 -10 -616 -10t-616 10q-108 6 -178 74t-78 178q-12 220 -12 330zM106 500h126v-668h120v668 h126v112h-372v-112zM240 1734q33 -1 63.5 -1t58.5 1q26 -104 78 -310h8q26 104 74 310h124q-32 -100 -96 -302q-46 -150 -46 -154v-324h-122v310q-4 28 -10 52l-18 54q-12 30 -114 364zM478 -78q0 -98 72 -98q66 0 126 72v-64h106v576h-106v-438q-44 -44 -64 -44 q-28 0 -28 40v442h-106v-100v-386zM638 1098v300q0 70 46 108t114 38t110 -40q42 -42 42 -110v-296q0 -74 -40 -116q-42 -42 -116 -42q-72 0 -114 44t-42 116q0 -22 0 -2zM750 1086q0 -48 44 -48q48 0 48 52v312q0 20 -14 32t-34 12q-18 0 -32 -12q-12 -10 -12 -30v-318z M886 -168h110v44q40 -52 102 -52q96 0 96 126v320q0 146 -104 146q-52 0 -94 -56v252h-110v-780zM996 -60q1 -2 3 -2q8 0 8 80q0 90 -11 284q22 22 44 22q46 0 46 -58v-302q0 -50 -40 -50q-28 0 -50 26zM1042 1044v-14v500h106v-440q0 -40 30 -40q26 0 64 44v436h106v-576 h-106v64q-60 -72 -126 -72q-74 0 -74 98zM1276 -6q0 -78 38 -128q40 -50 118 -50q160 0 160 178v42h-112q0 -4 2 -26q0 -24 -2 -34t-4 -28q-4 -18 -14 -24q-10 -8 -28 -8q-48 0 -48 82v108h206v148q0 78 -38 122q-38 46 -116 46q-74 0 -118 -48q-44 -46 -44 -120v-260z M1386 196v62q0 64 48 64q46 0 46 -64v-62h-94z" />
<glyph unicode="]" horiz-adv-x="2130" d="M4 142q0 -2 0 28v336v814q0 4 6 40q232 -198 694 -594q-230 -222 -692 -666q-8 30 -8 42zM96 1442q14 6 36 6h1494h374q20 0 38 -6q-232 -198 -696 -596q-32 -24 -92 -74q-62 -50 -182 -150q-62 50 -184 150q-30 24 -92 74q-232 198 -696 596zM98 20q16 -6 698 670 q90 -72 272 -218q90 72 270 218q232 -224 698 -670q-16 -6 -36 -6h-1868q-18 0 -34 6zM1430 766q164 142 322 282q182 150 370 312q6 -18 6 -40v-1178v-2q-20 0 -698 626z" />
<glyph unicode="c" horiz-adv-x="1024" d="M242 450h192q0 -76 42 -120t106 -58q2 94 2 282q-4 4 -16 8q-10 0 -28 4q-202 50 -250 158q-24 44 -32 112q0 124 96 208q96 74 222 78v108h80v-106q206 -20 282 -168q28 -52 32 -120h-196q0 52 -32 90q-34 40 -82 40v-240q20 -4 42 -8q20 -4 28 -8q174 -46 238 -150 q36 -56 36 -168q0 -20 -12 -68q-32 -102 -160 -170q-68 -34 -172 -38q2 -40 2 -118h-84q2 40 2 120q-154 6 -240 92q-86 84 -98 240zM452 848q0 -80 122 -102v12q2 68 2 208q-48 0 -84 -26q-20 -18 -30 -36q-8 -18 -10 -56zM652 274q148 28 152 134q0 52 -36 76 q-36 30 -116 50v-54v-206z" />
<glyph unicode="d" horiz-adv-x="1024" d="M-8 306q38 37 100 37q9 0 18 -1q66 0 128 -44q50 52 152 156q-75 93 -75 215q0 14 1 29q8 140 100 234q130 122 358 250q26 14 80 42q124 -124 372 -370q-32 -60 -48 -86q-20 -44 -106 -172t-140 -178q-102 -104 -242 -104t-236 72l-156 -150q42 -60 42 -128 q0 -66 -44 -108q-102 102 -304 306zM426 784h664l30 54l-278 278q-262 -152 -362 -248q-38 -40 -54 -84z" />
<glyph unicode="e" horiz-adv-x="1024" d="M0 0l252 708h168q82 -236 248 -706h-160l-48 144h-260q-16 -50 -48 -146h-152zM242 268h180l-90 276zM708 270v126h198v196h126v-198h198v-126h-198v-196h-126q0 66 -2 198h-196z" />
<glyph unicode="f" horiz-adv-x="1674" d="M574 580v280v110h314v198q0 212 140 362q138 150 334 150h314v-392h-314q-30 0 -56 -34q-24 -34 -24 -82v-202h394v-390h-394v-948h-394v948h-314z" />
<glyph unicode="g" horiz-adv-x="1024" d="M-16 82v8q10 80 30 238q-15 44 -15 89q0 31 7 63q18 78 74 134q84 84 202 84h636q118 0 204 -84q62 -60 78 -142q6 -29 6 -57q0 -53 -20 -103l30 -222v-6q0 -46 -30 -64q-32 -20 -50 -20q-6 0 -22 -2q-56 6 -96 30t-116 104q-160 16 -236 180q-8 22 -58 26q-46 0 -58 -24 q-24 -60 -62 -96q-72 -76 -180 -84q-76 -82 -104 -98q-52 -30 -114 -38q-8 0 -22 2q-20 0 -40 12q-44 24 -44 70zM104 418q0 -20 14 -36q16 -16 36 -16h92v-92q0 -20 14 -36t34 -16h2q22 0 36 14q14 16 14 38q0 30 12 92h96q20 0 34 16q16 16 16 36t-16 36t-36 16h-96v96 q0 22 -14 36t-38 14t-38 -14t-14 -38v-96h-92q-24 0 -40 -14q-16 -16 -16 -36zM754 348q0 -48 32 -80q32 -30 80 -30t80 32t32 80t-32 80q-30 30 -76 30h-6q-46 0 -78 -32t-32 -80zM958 516q0 -34 24 -58q22 -22 56 -22t58 24q26 32 26 60v4q0 26 -26 52q-24 22 -54 22h-4 q-32 0 -56 -24t-24 -58z" />
<glyph unicode="l" horiz-adv-x="1024" d="M12 260v34v110h134q12 64 40 188h-174v142h204q16 84 52 252h146l-54 -252h224q16 84 52 252h144q-16 -84 -52 -252h106v-144h-134l-36 -186h174v-144h-204q-18 -84 -54 -250h-146q18 84 54 250h-224q-16 -84 -52 -250h-146q16 84 52 250h-106zM284 400q74 0 222 -2 q14 64 38 188h-222q-14 -62 -38 -186zM1004 20v226h226v-60q0 -66 -2 -166h-224zM1012 960h210q2 -86 4 -256q-16 -118 -52 -354h-98q-18 118 -56 354q0 86 -8 256z" />
<glyph unicode="m" horiz-adv-x="1024" d="M4 640q0 160 112 272t270 112h-34h492q160 0 272 -112q112 -114 114 -274v-6q0 -156 -110 -266q-112 -112 -272 -112h-366q-74 -72 -218 -216v238q-116 40 -188 140t-72 224zM400 580h156v-156h116v156h158q0 38 -2 116h-156v156h-116v-156h-156v-116z" />
<glyph unicode="p" horiz-adv-x="1024" d="M-2 -2v290v456h264v132q0 146 102 248t248 102q144 0 250 -102q102 -106 102 -250v-130h264v-746h-1230zM392 876q0 -44 2 -130h438v132t-64 152q-64 62 -156 62t-156 -62t-64 -154zM488 446q0 -64 64 -100l-48 -216h222q-16 72 -48 214q58 36 58 98v4q0 62 -36 98 q-36 38 -88 38t-88 -36t-36 -100z" />
<glyph unicode="r" horiz-adv-x="1024" d="M-2 244v44v84h242v240h130q0 -80 2 -240h238v-128h-240v-242h-130v242h-242zM494 136h206v352h-168q28 62 100 94q64 28 120 28h12h60q108 0 190 -26t122 -66q80 -76 90 -140q2 -10 6 -28q2 -116 4 -350h-732q0 44 -10 136zM564 962q2 106 76 178t180 72t182 -72 q70 -70 70 -164v-14q0 -106 -76 -180t-180 -74t-176 74q-76 74 -76 180z" />
<glyph unicode="s" horiz-adv-x="1024" d="M6 364q16 28 24 32q182 180 308 268q64 44 126 44q54 0 104 -32q34 -24 50 -24t54 24q38 29 90 29q34 0 74 -13q58 -14 144 -88t216 -194q6 -6 38 -42q-2 0 -4 -4q-18 2 -130 24t-204 62q-58 25 -107 25q-30 0 -57 -9q-16 -8 -20 -8q-47 -25 -92 -25q-42 0 -82 21 q-43 22 -90 22q-45 0 -94 -20q-100 -40 -338 -88q-4 0 -10 -4zM12 306q144 46 198 50t148 8h16q83 0 152 -38q54 -29 96 -28q17 0 32 4q8 0 46 18q90 44 176 44q12 2 24 2q166 0 322 -56q0 -2 4 -6q-6 -8 -36 -44q-30 -38 -206 -190q-72 -64 -172 -68h-24q-26 0 -56 2 q-42 0 -50 4q-31 12 -64 12q-23 0 -48 -6q-52 -12 -98 -12h-14q-52 2 -108 18q-58 14 -124 74q-168 152 -214 212z" />
<glyph unicode="v" horiz-adv-x="1024" d="M-2 376q0 116 66 208q64 94 166 138v114q32 12 102 20q12 140 84 204q60 56 150 56q14 0 30 -2q56 -4 92 -36q40 -32 52 -60q14 -28 32 -80t38 -78q20 -24 48 -28q50 -8 52 -46v-6q-4 -40 -42 -46q40 0 -6 0q-56 8 -96 40q-36 34 -48 60q-14 26 -32 82t-36 80t-58 28h-15 q-67 0 -103 -34q-40 -38 -48 -134q48 -4 82 -14v-120q104 -40 168 -134t64 -210q-2 -154 -110 -262t-262 -108t-262 108t-108 260zM836 404q20 76 56 232q0 8 8 8t12 -8q4 -74 16 -222q0 -6 -8 -10q-24 -4 -74 -12q-10 0 -10 12zM894 1158q0 4 8 8q26 4 78 8q2 0 2 -2 q0 -28 -64 -244q34 116 34 120q0 5 -42 -128q-8 0 -8 10q-4 76 -8 228zM942 836q0 4 6 8l240 150h8t6 -4l30 -90v-8q-4 -4 -8 -4q-90 -22 -270 -62v-2q-6 0 -10 8q-2 2 -2 4zM948 720q0 4 2 8q4 4 16 4q86 -28 256 -88q8 -4 8 -16q-8 -28 -24 -88q-2 -4 -8 -8q-2 0 -6 -4 q-4 2 -6 2q-78 60 -232 180q-6 6 -6 10z" />
<glyph unicode="&#xd1;" horiz-adv-x="1920" d="M10 50v448q80 88 238 264h174v-132h-114q-56 -60 -164 -182v-502h1628v502q-56 62 -164 182h-116v132h176l234 -264v-682h-1892v234zM422 468v162v132v382q102 104 310 310h760v-692v-132v-162h-1070zM544 594h826v738h-516v-310h-310v-108v-320z" />
<glyph unicode="&#x2000;" horiz-adv-x="1025" />
<glyph unicode="&#x2001;" horiz-adv-x="2050" />
<glyph unicode="&#x2002;" horiz-adv-x="1025" />
<glyph unicode="&#x2003;" horiz-adv-x="2050" />
<glyph unicode="&#x2004;" horiz-adv-x="683" />
<glyph unicode="&#x2005;" horiz-adv-x="512" />
<glyph unicode="&#x2006;" horiz-adv-x="341" />
<glyph unicode="&#x2007;" horiz-adv-x="341" />
<glyph unicode="&#x2008;" horiz-adv-x="256" />
<glyph unicode="&#x2009;" horiz-adv-x="410" />
<glyph unicode="&#x200a;" horiz-adv-x="113" />
<glyph unicode="&#x202f;" horiz-adv-x="410" />
<glyph unicode="&#x205f;" horiz-adv-x="512" />
<glyph unicode="&#x2139;" d="M0 1024q0 422 300 724q302 300 724 300t724 -300q300 -302 300 -724q0 -426 -300 -724q-302 -300 -724 -300t-724 300q-300 298 -300 724zM804 366h512v220h-146v658h-366v-220h146v-438h-146v-220zM878 1536q0 -60 44 -102q42 -44 102 -44t102 44q44 42 44 102t-44 102 q-42 44 -102 44t-102 -44q-44 -42 -44 -102z" />
<glyph unicode="&#x2197;" d="M0 0v700v982h732v-220h-512v-1242h1242v512h220v-732h-1682zM640 896l768 768l-384 384h1024v-1024l-384 384q-256 -258 -768 -772q-86 86 -256 260z" />
<glyph unicode="&#x22c6;" d="M0 1266l708 108q106 224 316 674q106 -224 316 -674l708 -108q-170 -174 -512 -526q42 -246 128 -740q-214 116 -640 350q-214 -116 -640 -350q42 246 128 740q-170 176 -512 526z" />
<glyph unicode="&#x2421;" d="M0 1024q0 422 300 724q298 300 724 300q422 0 724 -300q300 -302 300 -724t-300 -724q-302 -300 -724 -300q-426 0 -724 300q-300 302 -300 724zM570 766q64 -66 196 -196q86 84 258 256l256 -256q66 64 198 196l-258 258q86 86 258 256l-198 198q-86 -86 -256 -258 l-258 258q-66 -66 -196 -198q84 -86 256 -256q-86 -86 -256 -258z" />
<glyph unicode="&#x25b6;" d="M0 1024q0 422 300 724q302 300 724 300t724 -300q300 -302 300 -724t-300 -724q-302 -300 -724 -300t-724 300q-300 302 -300 724zM804 512q226 170 678 512q-226 170 -678 512v-258v-766z" />
<glyph unicode="&#x25fc;" horiz-adv-x="1000" d="M0 0z" />
<glyph unicode="&#x2665;" d="M0 1354q0 160 70 320q72 160 198 266q128 108 270 108q160 0 290 -90t196 -240q66 150 196 240t290 90q142 0 270 -108q126 -106 198 -266q70 -160 70 -320q0 -128 -56 -274t-146 -272t-200 -252q-110 -124 -220 -222t-200 -176q-90 -76 -148 -116l-54 -42 q-42 28 -110 78q-70 52 -246 208q-176 158 -312 310q-134 154 -246 364q-110 210 -110 394z" />
<glyph unicode="&#x266b;" d="M0 330q0 140 120 244q120 102 286 102q84 0 180 -30v1238q486 54 1462 164v-1554q0 -142 -120 -244q-120 -104 -286 -104q-170 0 -294 104q-122 102 -122 244t124 244q124 104 294 104q90 0 184 -44v848q-340 -36 -1024 -110v-1188q0 -144 -116 -246t-286 -102 q-172 0 -286 94q-116 94 -116 236z" />
<glyph unicode="&#x2699;" d="M0 804v184v256h304q14 58 64 152q-72 70 -214 208q96 98 288 290q70 -70 210 -214q88 52 152 66v302h440v-302q58 -14 152 -64q70 72 208 212q98 -96 290 -288q-70 -70 -214 -210q52 -88 66 -152h302v-440h-302q-14 -58 -64 -152q72 -70 212 -206q-96 -98 -288 -290 q-70 72 -210 214q-88 -52 -152 -66v-304h-440v304q-58 14 -152 64q-70 -72 -206 -214q-98 96 -290 288q72 70 214 210q-52 88 -66 152h-304zM676 1024q0 -144 102 -246t246 -102t246 102t102 246t-102 246t-246 102t-246 -102t-102 -246z" />
<glyph unicode="&#x26e8;" d="M0 1024q0 422 300 724q302 300 724 300t724 -300q300 -302 300 -724t-300 -724q-302 -300 -724 -300t-724 300q-300 302 -300 724zM438 804h366v-366h440v366h366v440h-366v366h-440v-366h-366v-440z" />
<glyph unicode="&#x2709;" d="M0 74v518v724q342 -268 1024 -804q342 268 1024 804v-1242q-98 96 -292 292l-74 -74q98 -96 292 -292h-1900q96 98 292 292l-74 74q-96 -98 -292 -292zM74 1390q316 220 950 658q316 -220 950 -658q-96 -74 -292 -220v292h-1316v-292q-98 74 -292 220zM732 950v74h584 v-74h-584zM732 1098v72h584v-72h-584zM732 1244v72h584v-72h-584z" />
<glyph unicode="&#x27a1;" d="M0 732v242v342h878q-50 244 -146 732q438 -342 1316 -1024q-438 -342 -1316 -1024q48 244 146 732h-878z" />
<glyph unicode="&#xe002;" d="M0 1206q0 348 246 596q248 246 596 246q346 0 594 -246q246 -248 246 -596q0 -262 320 -948q46 -44 46 -108t-46 -106q-40 -44 -104 -44t-108 44q-158 156 -472 470q-214 -148 -476 -148q-348 0 -596 246q-246 248 -246 594zM438 1098h294v-294h218v294h294v218h-294v294 h-218v-294h-294v-218z" />
<glyph unicode="&#xe398;" d="M0 1188v76v108q0 282 196 480q198 196 480 196h696q282 0 480 -196q196 -198 196 -480v-184q0 -282 -196 -480q-198 -196 -480 -196h-166q-158 -170 -474 -512v512h-56q-282 0 -480 196q-196 198 -196 480zM658 1654q44 -50 132 -154q116 126 252 126q184 0 184 -110 q0 -40 -22 -62q-22 -24 -80 -50q-80 -38 -118 -86q-40 -48 -48 -92q-8 -46 -8 -128h148q2 60 40 96q40 36 140 84q148 76 148 246q0 152 -104 228t-280 76q-222 0 -384 -174zM914 842q0 -46 32 -78t78 -32t78 32t32 78q0 44 -32 76t-78 32t-78 -32t-32 -76z" />
<glyph unicode="&#xe6d0;" d="M0 1316q0 192 80 336t222 230q142 84 322 124q180 42 400 42t400 -42q180 -40 322 -124q142 -86 222 -230t80 -336q0 -118 -106 -298q-104 -180 -256 -350q-150 -172 -300 -326q-152 -152 -256 -246q-36 -32 -106 -96q-42 36 -110 100q-70 62 -246 238t-312 334 q-134 158 -246 342q-110 184 -110 302zM732 1390q0 -122 86 -208q84 -84 206 -84t206 84q86 86 86 208q0 120 -86 206q-84 86 -206 86t-206 -86q-86 -86 -86 -206z" />
<glyph unicode="&#xe960;" d="M0 0v60v86h658v-146h-658zM0 220v668v940h658v-1608h-658zM0 1902v60v86h658v-146h-658zM146 1462h366v74h-366v-74zM146 1610h366v72h-366v-72zM732 0v146h658v-146h-658zM732 220v806v802h658v-1608h-658zM732 1902v146h658v-146h-658zM878 1462h366v74h-366v-74z M878 1610h366v72h-366v-72zM1536 438h512q-86 -146 -256 -438q-86 146 -256 438zM1536 512v1170h512v-1170h-512zM1536 1756v146q0 68 74 108q72 38 182 38t182 -38q74 -40 74 -108v-146h-512z" />
<glyph unicode="&#xe973;" d="M0 0v428v598v1022h2048v-2048h-2048zM220 220h1608v72h-404h-1204v-72zM220 438h1608v74h-1608v-74zM220 658h1608v74h-1608v-74zM220 878h1608v72h-1608v-72zM220 1098h730v72h-730v-72zM220 1316h730v74h-730v-74zM220 1536h730v74h-730v-74zM914 1866q0 -46 32 -78 t78 -32t78 32t32 78q0 44 -32 76t-78 32t-78 -32t-32 -76zM1098 1098h730v512h-730v-512z" />
<glyph unicode="&#xea00;" d="M0 132q0 26 10 56q58 206 172 616h330v-146h1024v146h336q58 -206 174 -616q2 -10 2 -22q0 -38 -28 -94q-38 -72 -94 -72h-1798q-64 0 -104 56q-24 34 -24 76zM220 878v164v230v654q0 52 30 86q32 36 80 36h1388q48 0 80 -36q30 -34 30 -86q0 52 0 -1048h-1608zM438 1098 h1172v730h-1172v-184v-546z" />
<glyph unicode="&#xeb02;" d="M0 0v548v768h2048v-1316h-2048zM0 1390q48 220 146 658h804v-658h-950zM512 658q170 -158 512 -476q170 160 512 476h-366v366h-292v-366h-366zM1098 1390v658h804q48 -220 146 -658h-950z" />
<glyph unicode="&#xec00;" d="M0 0v730v1026h658v-586h-438v-72h438v-148h-438v-72h438v-146h-438v-74h438v-146h-438v-74h438v-218h658v-220h-1316zM732 292v1210v546h730v-586h586v-1170h-1316zM950 512h878v74h-878v-74zM950 732h878v72h-878v-72zM950 950h878v74h-878v-74zM950 1170h878v74h-878 v-74zM1536 1536v512l512 -512h-512z" />
<glyph unicode="&#xf030;" d="M0 804v304v428h512v238q0 114 80 194t194 80h476q114 0 194 -80t80 -194v-238h512v-732h-220v146h-438v-146h-732v146h-438v-146h-220zM74 0v200v532h146v-220h438v220h732v-220h438v220h146v-732h-1900zM292 586v120v172h294v-220v-72h-294zM658 1536h732v238 q0 50 -40 88q-38 40 -88 40h-476q-50 0 -88 -40q-40 -38 -40 -88v-120v-118zM1462 586v292h294v-292h-294z" />
<glyph unicode="&#x1d77b;" horiz-adv-x="1148" />
<glyph unicode="&#x1ee00;" d="M0 1462v62v86q0 182 128 310t310 128h512q184 0 312 -128t128 -310v-148q0 -182 -128 -310t-312 -128h-146q-90 -92 -366 -366v366q-182 0 -310 128t-128 310zM674 688q64 64 192 190h84q222 0 388 148q166 146 194 364h78q182 0 310 -128t128 -312v-146 q0 -182 -128 -310t-310 -128v-366l-366 366h-146q-150 0 -268 90q-116 90 -156 232z" />
<glyph unicode="&#x1f311;" d="M0 1024q0 422 300 724q302 300 724 300t724 -300q300 -302 300 -724t-300 -724q-302 -300 -724 -300t-724 300q-300 302 -300 724z" />
<glyph unicode="&#x1f3a4;" d="M0 1170v60v86h366v294h146v-512q0 -220 138 -366t374 -146t374 146t138 366v512h146v-294h366v-146h-366v-72q0 -252 -168 -440t-416 -214v-230q150 -10 268 -68q120 -60 170 -146h-1024q50 86 170 146q118 58 268 68v230q-248 26 -416 214q-168 186 -168 436v76h-366z M658 1098v220v364q0 158 96 262t270 104t270 -104t96 -262v-584q0 -158 -96 -262t-270 -104t-270 104t-96 262z" />
<glyph unicode="&#x1f3ac;" d="M0 0v366v512h2048v-878h-2048zM0 950v236v332q650 176 1952 530q32 -118 96 -352q-466 -126 -1396 -380h1396v-366h-2048zM146 1280q0 -46 32 -78t78 -32t78 32t32 78t-32 78t-78 32t-78 -32t-32 -78zM490 1574q42 -64 128 -192q92 26 280 76q-42 66 -128 194 q-94 -26 -280 -78zM512 1024h292q24 74 74 220h-292q-26 -74 -74 -220zM982 1710q44 -64 128 -192q96 24 284 76q-42 64 -128 192q-94 -26 -284 -76zM1024 1024h292q24 74 74 220h-292q-26 -74 -74 -220zM1476 1842q44 -64 128 -192q96 26 284 78q-20 70 -58 210zM1536 1024 h366v220h-292q-26 -74 -74 -220z" />
<glyph unicode="&#x1f3ae;" d="M0 586q0 242 172 412q170 172 414 172h876q244 0 414 -172q172 -170 172 -412q0 -244 -172 -414q-170 -172 -414 -172h-876q-244 0 -414 172q-172 170 -172 414zM220 512h218v-220h148v220h218v146h-218v220h-148v-220h-218v-146zM586 1792v158v98h218v-146h768 q46 0 78 -32t32 -78v-366q0 -48 -32 -78q-32 -32 -78 -32h-402v-72h-220v182q0 46 32 78q30 32 78 32h402v146h-768q-44 0 -76 32q-32 30 -32 78zM1116 402q0 -68 48 -116t116 -48t116 48t48 116t-48 116t-116 48t-116 -48t-48 -116zM1482 694q0 -68 48 -116t116 -48t116 48 t48 116q0 70 -48 118t-116 48t-116 -48t-48 -118z" />
<glyph unicode="&#x1f3c6;" d="M0 1430v196v276h366v146h1316v-146h366v-472q0 -268 -152 -438t-394 -210q-136 -186 -332 -238v-224q156 -42 260 -142q106 -100 106 -178h-1024q0 78 106 178q104 100 260 142v224q-196 52 -332 238q-242 40 -394 210t-152 438zM146 1390q0 -178 76 -274 q78 -94 220 -150q-76 196 -76 446v344h-220v-152v-214zM622 1534q66 -68 200 -206q-16 -98 -48 -292q84 46 250 136q84 -46 250 -136q-16 96 -48 292q66 68 200 206q-92 14 -278 40q-42 90 -124 266q-42 -88 -124 -266q-92 -12 -278 -40zM1606 966q142 56 220 150 q76 96 76 274q0 -178 0 366h-220v-344q0 -250 -76 -446z" />
<glyph unicode="&#x1f465;" d="M0 2v202v382q0 214 160 368q160 152 388 152q230 0 390 -152q160 -154 160 -368v-584h-1098zM164 1664q0 160 112 272t272 112t272 -112t112 -272t-112 -272t-272 -112t-272 112t-112 272zM1170 0v114v496q0 172 128 292q128 122 312 122q182 0 310 -122 q128 -120 128 -292v-610h-878zM1254 1536q0 146 104 250t252 104q146 0 250 -104t104 -250t-104 -250t-250 -104q-148 0 -252 104t-104 250z" />
<glyph unicode="&#x1f4a5;" horiz-adv-x="1148" />
<glyph unicode="&#x1f4ca;" d="M0 0v458v640h586v-922v-176h-586zM732 0v806v804h584v-1610h-584zM1462 0v1024v1024h586v-2048h-586z" />
<glyph unicode="&#x1f4d6;" d="M0 42v90v128q176 106 438 106q366 0 518 -146h136q152 146 518 146q262 0 438 -106v-218q-176 104 -438 104q-358 0 -512 -142v-4h-148v4q-154 142 -512 142q-262 0 -438 -104zM0 402v578v400v562q176 106 438 106q350 0 512 -146v-1536q-162 146 -512 146 q-252 0 -438 -110zM1098 366v576v960q162 146 512 146q262 0 438 -106v-1540q-186 110 -438 110q-350 0 -512 -146z" />
<glyph unicode="&#x1f4da;" d="M0 0v60v86h586v-146h-586zM0 220v668v940h586v-1368v-240h-586zM0 1902v60v86h586v-146h-586zM146 1462h292v74h-292v-74zM146 1610h292v72h-292v-72zM658 0v146h586v-146h-586zM658 220v806v802h586v-1608h-586zM658 1902v146h586v-146h-586zM804 1462h294v74h-294v-74z M804 1610h294v72h-294v-72zM1316 2048h146q98 -682 294 -2048h-146q-98 682 -294 2048zM1610 2048h146q96 -682 292 -2048h-146q-98 682 -292 2048z" />
<glyph unicode="&#x1f4dd;" d="M0 0v440v738v504h732v-220h-512v-1242h1242v512h220v-732h-1682zM546 546q36 94 140 378q60 -60 238 -240q-94 -34 -378 -138zM770 1044q212 212 844 846l276 -276q-210 -212 -844 -846q-68 70 -276 276zM1716 1994q58 54 138 54q82 0 136 -58q58 -56 58 -136t-54 -138 q-94 92 -278 278z" />
<glyph unicode="&#x1f4de;" d="M0 508q0 224 126 486q128 260 398 530t530 398q260 126 482 126q224 0 364 -130q0 -2 4 -4q-162 -162 -484 -486l-138 138q-12 -8 -88 -50q-76 -44 -120 -72q-44 -26 -120 -86q-76 -58 -142 -124t-124 -142q-58 -74 -84 -118q-28 -44 -72 -120q-42 -74 -50 -88l138 -138 q-162 -160 -486 -484q0 2 -4 4q-130 136 -130 360zM186 92l486 486q18 -18 54 -56q38 -38 38 -88q0 -48 -32 -78q32 30 -326 -324q-34 -34 -76 -34q-48 0 -88 38zM1470 1376q162 162 486 484q18 -18 56 -54q36 -42 36 -88q0 -42 -32 -80q32 38 -324 -322q-34 -34 -78 -34 q-50 0 -90 40z" />
<glyph unicode="&#x1f4e2;" d="M0 804v304v428h950v-732h-950zM292 732h366q74 -244 220 -732h-366q-74 244 -220 732zM1024 804v732q268 170 804 512v-1756q-268 172 -804 512zM1902 878v584h146v-584h-146z" />
<glyph unicode="&#x1f4ed;" horiz-adv-x="1148" />
<glyph unicode="&#x1f4f1;" d="M366 182v834v850q0 76 52 130q52 52 130 52h952q78 0 130 -52q52 -54 52 -130v-1684q0 -76 -52 -130q-52 -52 -130 -52h-952q-78 0 -130 52q-52 54 -52 130zM512 438h1024v1244h-1024v-388v-856zM804 1828h440v74h-440v-74zM914 220q0 -46 32 -78t78 -32t78 32t32 78 t-32 78t-78 32t-78 -32t-32 -78z" />
<glyph unicode="&#x1f4fa;" d="M0 0v580v810h742q58 130 168 182q-130 138 -386 414q-26 24 0 52q10 12 22 12h4q14 0 28 -14q136 -142 410 -430q34 8 72 8q58 0 520 422q22 26 52 0q14 -12 14 -26t-12 -28l-396 -426q96 -56 138 -166h234v-1390h-1610zM220 220h1096v950h-1096v-198v-278v-474zM1682 0 v1390h366v-1390h-366z" />
<glyph unicode="&#x1f50d;" d="M0 1206q0 348 246 596q248 246 596 246q346 0 594 -246q246 -248 246 -596q-2 -294 -108 -518l430 -430q44 -44 44 -108t-44 -106q-42 -44 -106 -44t-108 44q-158 156 -472 470q-214 -148 -476 -148q-348 0 -596 246q-246 248 -246 594zM220 1206q0 -256 182 -438 q184 -182 440 -182t438 182t182 438t-182 440q-182 182 -438 182t-440 -182q-182 -184 -182 -440z" />
<glyph unicode="&#x1f601;" d="M0 1024q0 150 108 258q106 108 258 108q132 0 232 -88q240 122 720 362v10q-2 6 -2 8q0 152 108 258q108 108 258 108q152 0 258 -108q108 -106 108 -258q0 -150 -108 -258q-106 -108 -258 -108q-130 0 -232 86l-720 -360v-8q2 -6 2 -10t-2 -10v-8q240 -120 720 -362 q100 88 232 88q152 0 258 -108q108 -108 108 -258q0 -152 -108 -258q-106 -108 -258 -108q-150 0 -258 108q-108 106 -108 258q0 4 2 8v10q-240 120 -720 358q-102 -84 -232 -84q-152 0 -258 108q-108 108 -108 258zM146 1024q0 -92 64 -156t156 -64t156 64t64 156t-64 156 t-156 64t-156 -64t-64 -156zM1462 366q0 -92 64 -156t156 -64t156 64t64 156t-64 156t-156 64t-156 -64t-64 -156zM1462 1682q0 -92 64 -156t156 -64t156 64t64 156t-64 156t-156 64t-156 -64t-64 -156z" />
</font>
</defs>
</svg>
